<svg xmlns="http://www.w3.org/2000/svg" width="38" height="38" viewBox="0 0 38 38">
    <g fill="none" fill-rule="evenodd">
        <g>
            <g>
                <g>
                    <g transform="translate(-803 -9) translate(-10 -1) translate(586) translate(228 11)">
                        <circle cx="18" cy="18" r="18" stroke="#5D52A8" stroke-width="2"/>
                        <path fill="#5D52A8" d="M21.738 16.369c0-2.965-2.404-5.369-5.37-5.369C13.405 11 11 13.404 11 16.369s2.404 5.369 5.369 5.369 5.369-2.404 5.369-5.37zm1.147 8.268c.484.484 1.268.484 1.752 0s.484-1.268 0-1.752l-4.088-4.088c-.484-.484-1.269-.484-1.752 0-.484.483-.484 1.268 0 1.752l4.088 4.088zm-9.407-8.268c0-1.597 1.294-2.891 2.89-2.891 1.597 0 2.892 1.294 2.892 2.89 0 1.597-1.295 2.892-2.891 2.892-1.597 0-2.891-1.295-2.891-2.891z"/>
                    </g>
                </g>
            </g>
        </g>
    </g>
</svg>
